<?xml version="1.0" encoding="utf-8"?>
<!-- Generator: Adobe Illustrator 20.1.0, SVG Export Plug-In . SVG Version: 6.00 Build 0)  -->
<svg version="1.1" id="Layer_1" xmlns="http://www.w3.org/2000/svg" xmlns:xlink="http://www.w3.org/1999/xlink" x="0px" y="0px"
	 viewBox="0 0 1389.7 481.2" style="enable-background:new 0 0 1389.7 481.2;" xml:space="preserve">
<style type="text/css">
	.st0{fill:#AAAAAA;}
	.st1{fill:#646464;stroke:#646464;stroke-width:8;stroke-miterlimit:10;}
	.st2{fill:#FFFFFF;stroke:#646464;stroke-width:16;stroke-miterlimit:10;}
	.st3{fill:#A1DDCA;stroke:#646464;stroke-width:24;stroke-miterlimit:10;}
	.st4{display:none;}
	.st5{fill:#FFFFFF;stroke:#646464;stroke-width:20;stroke-miterlimit:10;}
	.st6{fill:none;stroke:#646464;stroke-width:16;stroke-linecap:round;stroke-miterlimit:10;}
	.st7{fill:#FFFFFF;stroke:#646464;stroke-width:12;stroke-linejoin:round;stroke-miterlimit:10;}
	.st8{fill:none;stroke:#646464;stroke-width:9.6;stroke-linejoin:round;stroke-miterlimit:10;}
	.st9{fill:#777777;}
	.st10{fill:#9AC9BC;}
</style>
<path class="st0" d="M263.2,416.2c-4.8-12.8-40-24-84.8-24c-46.4,0-84.8,11.2-84.8,27.2c0,3.2,1.6,6.4,6.4,9.6
	c3.2,1.6,6.4,3.2,9.6,4.8c16,6.4,40,11.2,68.8,11.2c12.8,0,25.6-1.6,38.4-3.2C234.4,437,250.4,429,263.2,416.2z"/>
<g id="body">
	<path class="st1" d="M140,64.2c-3.2-9.6-4.8-8-24-11.2c-22.4-3.2-25.6-24-20.8-30.4c11.2-9.6,22.4-1.6,35.2,3.2
		c11.2,4.8,12.8,8,12.8,16c0,20.8,17.6,38.4,28.8,44.8c3.2,3.2-9.6,4.8-12.8,3.2C149.6,88.2,149.6,80.2,140,64.2z"/>
	<path class="st1" d="M184.8,57.8c3.2-9.6,6.4-16,20.8-22.4c20.8-8,17.6-25.6,11.2-28.8c-11.2-6.4-16,0-25.6,8S180,32.2,180,41.8
		c-3.2,14.4-11.2,43.2-12.8,46.4s12.8,3.2,16,0C184.8,85,181.6,77,184.8,57.8z"/>
	<path class="st1" d="M205.6,77c1.6-6.4,6.4-16,16-16c16-1.6,25.6-8,20.8-12.8c-8-8-20.8-8-27.2-1.6c-6.4,4.8-8,8-9.6,11.2
		c-6.4,12.8-9.6,27.2-14.4,33.6c-1.6,1.6,3.2,3.2,6.4,1.6C204,91.4,202.4,89.8,205.6,77z"/>
	<path class="st2" d="M108,448.2c1.6,4.8-9.6,14.4-20.8,16c-11.2,0-24-4.8-24-14.4c0-6.4,6.4-12.8,11.2-14.4
		c4.8-1.6,4.8,1.6,12.8,4.8C101.6,446.6,108,445,108,448.2z"/>
	<path class="st2" d="M140,464.2c0,6.4-3.2,11.2-17.6,8c-6.4-1.6-16-6.4-16-12.8c0-4.8,3.2-8,8-9.6c3.2,0,4.8-1.6,11.2,1.6
		c11.2,3.2,12.8,3.2,14.4,6.4C141.6,459.4,141.6,461,140,464.2z"/>
	<path class="st2" d="M245.6,448.2c-1.6,4.8,9.6,14.4,20.8,16c11.2,0,24-4.8,24-14.4c0-6.4-6.4-12.8-11.2-14.4
		c-4.8-1.6-4.8,1.6-12.8,4.8C252,446.6,248.8,445,245.6,448.2z"/>
	<path class="st2" d="M213.6,464.2c0,6.4,3.2,11.2,17.6,8c6.4-1.6,16-6.4,16-12.8c0-4.8-3.2-8-8-9.6c-3.2,0-4.8-1.6-11.2,1.6
		c-11.2,3.2-12.8,3.2-14.4,6.4C213.6,459.4,213.6,461,213.6,464.2z"/>
	<path class="st3" d="M12,283.4c0-104,57.6-196.8,156.8-196.8S340,179.4,340,283.4s-64,166.4-163.2,166.4S12,387.4,12,283.4z"/>
</g>
<g id="Layer_3" class="st4">
</g>
<g id="face">
	<path class="st5" d="M213.6,190.6c24-12.8,56,3.2,72,35.2c14.4,32,6.4,67.2-17.6,80s-56-3.2-72-35.2
		C181.6,238.6,189.6,201.8,213.6,190.6z"/>
	<path class="st6" d="M77.6,206.6c-1.6,0-4.8-1.6-6.4-4.8C68,197,68,192.2,68,190.6"/>
	<path class="st6" d="M68,222.6c-1.6,0-4.8-1.6-8-4.8c-4.8-3.2-6.4-8-6.4-9.6"/>
	<path class="st6" d="M64.8,238.6c-1.6,0-4.8,0-9.6-1.6c-4.8-3.2-8-6.4-8-8"/>
	<path class="st6" d="M271.2,203.4c1.6,0,4.8-1.6,6.4-4.8c3.2-4.8,3.2-9.6,3.2-11.2"/>
	<path class="st6" d="M280.8,217.8c1.6,0,4.8-1.6,8-4.8c4.8-3.2,6.4-8,6.4-9.6"/>
	<path class="st6" d="M287.2,232.2c1.6,0,4.8,0,9.6-1.6c4.8-3.2,8-6.4,8-8"/>
	<path class="st5" d="M68,224.2c14.4-32,46.4-48,72-35.2s32,48,17.6,80s-46.4,48-72,35.2S55.2,256.2,68,224.2z"/>
	<ellipse class="st1" cx="122.4" cy="261" rx="33.6" ry="35.2"/>
	<ellipse class="st1" cx="229.6" cy="261" rx="33.6" ry="35.2"/>
	<polygon class="st7" points="149.6,323.4 176.8,304.2 204,323.4 176.8,355.4 	"/>
	<line class="st8" x1="152.8" y1="325" x2="197.6" y2="325"/>
</g>
<g>
	<g>
		<path class="st9" d="M521,230.1c0.6,0.6,0.9,1.3,0.9,2.1V304c0,0.8-0.3,1.5-0.9,2.1c-0.6,0.6-1.3,0.9-2.1,0.9h-14.6
			c-0.8,0-1.5-0.3-2.1-0.9c-0.6-0.6-0.9-1.3-0.9-2.1v-27.3h-24.7V304c0,0.8-0.3,1.5-0.9,2.1c-0.6,0.6-1.3,0.9-2.1,0.9H459
			c-0.8,0-1.5-0.3-2.1-0.8c-0.6-0.6-0.9-1.3-0.9-2.2v-71.9c0-0.8,0.3-1.5,0.9-2.1c0.6-0.6,1.3-0.9,2.1-0.9h14.6
			c0.8,0,1.5,0.3,2.1,0.9c0.6,0.6,0.9,1.3,0.9,2.1V259h24.7v-26.8c0-0.8,0.3-1.5,0.9-2.1c0.6-0.6,1.3-0.9,2.1-0.9h14.6
			C519.7,229.2,520.4,229.5,521,230.1z"/>
		<path class="st9" d="M617.1,302.9c0.3,0.7,0.4,1.3,0.4,1.7c0,0.7-0.2,1.2-0.7,1.7c-0.5,0.5-1.1,0.7-1.7,0.7h-14
			c-1.3,0-2.2-0.3-2.9-0.8c-0.7-0.6-1.2-1.2-1.4-1.9l-3.1-9.2H564l-3.1,9.2c-0.2,0.7-0.7,1.4-1.4,1.9c-0.7,0.6-1.7,0.8-2.9,0.8h-14
			c-0.7,0-1.2-0.2-1.7-0.7c-0.5-0.5-0.7-1.1-0.7-1.7c0-0.4,0.1-0.9,0.4-1.7l24.3-70.1c0.4-1,1-1.9,1.8-2.6c0.8-0.7,1.9-1.1,3.2-1.1
			h18c1.3,0,2.4,0.4,3.2,1.1c0.8,0.7,1.4,1.6,1.8,2.6L617.1,302.9z M587.8,277.8l-9-26.7l-9,26.7H587.8z"/>
		<path class="st9" d="M687.3,230.1c0.6,0.6,0.9,1.3,0.9,2.1V244c0,0.8-0.3,1.5-0.9,2.1c-0.6,0.6-1.3,0.9-2.1,0.9h-19.6V304
			c0,0.8-0.3,1.5-0.9,2.1c-0.6,0.6-1.3,0.9-2.1,0.9H648c-0.8,0-1.5-0.3-2.1-0.9c-0.6-0.6-0.9-1.3-0.9-2.1V247h-19.6
			c-0.8,0-1.5-0.3-2.1-0.9s-0.9-1.3-0.9-2.1v-11.8c0-0.8,0.3-1.5,0.9-2.1c0.6-0.6,1.3-0.9,2.1-0.9h59.7
			C686,229.2,686.7,229.5,687.3,230.1z"/>
		<path class="st9" d="M727.7,286.8c2.2,2.4,5.6,3.6,10.3,3.6c4.5,0,7.7-0.9,9.7-2.6c2-1.7,3.4-3.8,4.2-6.2c0.4-1.3,0.9-2.1,1.3-2.6
			c0.4-0.4,1.3-0.7,2.5-0.7h14.6c0.7,0,1.2,0.2,1.7,0.7c0.5,0.5,0.7,1.1,0.7,1.7c-0.1,5-1.7,9.5-4.7,13.7c-3.1,4.2-7.3,7.5-12.5,10
			c-5.3,2.5-11.1,3.7-17.5,3.7c-6.9,0-12.9-1.4-18-4.1c-5.1-2.7-9.1-6.3-11.9-10.9c-2.8-4.6-4.4-9.6-4.7-15.2
			c-0.2-3.6-0.2-6.5-0.2-8.8c0-2.8,0.1-6.4,0.2-11c0.2-5.6,1.7-10.6,4.6-15.2c2.8-4.6,6.8-8.2,11.9-10.9s11.2-4.1,18.1-4.1
			c6.4,0,12.2,1.2,17.5,3.7c5.3,2.5,9.4,5.8,12.5,10c3.1,4.2,4.6,8.8,4.7,13.7c0,0.7-0.2,1.2-0.7,1.7c-0.5,0.5-1.1,0.7-1.7,0.7
			h-14.6c-1.2,0-2-0.2-2.5-0.7c-0.4-0.4-0.9-1.3-1.3-2.6c-0.8-2.4-2.2-4.5-4.2-6.2c-2-1.7-5.2-2.6-9.7-2.6c-4.7,0-8.1,1.2-10.3,3.6
			c-2.2,2.4-3.4,5.5-3.7,9.3c-0.2,2.5-0.2,5.6-0.2,9.3c0,3.6,0.1,6.7,0.2,9.4C724.3,281.3,725.5,284.4,727.7,286.8z"/>
		<path class="st9" d="M858.4,230.1c0.6,0.6,0.9,1.3,0.9,2.1V304c0,0.8-0.3,1.5-0.9,2.1c-0.6,0.6-1.3,0.9-2.1,0.9h-14.6
			c-0.8,0-1.5-0.3-2.1-0.9c-0.6-0.6-0.9-1.3-0.9-2.1v-27.3H814V304c0,0.8-0.3,1.5-0.9,2.1c-0.6,0.6-1.3,0.9-2.1,0.9h-14.6
			c-0.8,0-1.5-0.3-2.1-0.8c-0.6-0.6-0.9-1.3-0.9-2.2v-71.9c0-0.8,0.3-1.5,0.9-2.1c0.6-0.6,1.3-0.9,2.1-0.9H811
			c0.8,0,1.5,0.3,2.1,0.9c0.6,0.6,0.9,1.3,0.9,2.1V259h24.7v-26.8c0-0.8,0.3-1.5,0.9-2.1c0.6-0.6,1.3-0.9,2.1-0.9h14.6
			C857.1,229.2,857.8,229.5,858.4,230.1z"/>
		<path class="st9" d="M940.7,290.1c0.6,0.6,0.9,1.3,0.9,2.1V304c0,0.8-0.3,1.5-0.9,2.1c-0.6,0.6-1.3,0.9-2.1,0.9h-51.5
			c-0.8,0-1.5-0.3-2.1-0.9c-0.6-0.6-0.9-1.3-0.9-2.1v-71.9c0-0.8,0.3-1.5,0.9-2.1c0.6-0.6,1.3-0.9,2.1-0.9h14.6
			c0.8,0,1.5,0.3,2.1,0.9c0.6,0.6,0.9,1.3,0.9,2.1v57.1h33.9C939.4,289.2,940.1,289.5,940.7,290.1z"/>
		<path class="st9" d="M961.3,306.1c-0.6-0.6-0.9-1.3-0.9-2.1v-71.9c0-0.8,0.3-1.5,0.9-2.1c0.6-0.6,1.3-0.9,2.1-0.9h14.6
			c0.8,0,1.5,0.3,2.1,0.9c0.6,0.6,0.9,1.3,0.9,2.1V304c0,0.8-0.3,1.5-0.9,2.1c-0.6,0.6-1.3,0.9-2.1,0.9h-14.6
			C962.6,307,961.9,306.8,961.3,306.1z"/>
		<path class="st9" d="M1053.5,306.2c-0.8-0.6-1.4-1.1-1.7-1.7l-25.5-38V304c0,0.8-0.3,1.5-0.9,2.1c-0.6,0.6-1.3,0.9-2.1,0.9h-14.6
			c-0.8,0-1.5-0.3-2.1-0.9c-0.6-0.6-0.9-1.3-0.9-2.1v-71.9c0-0.8,0.3-1.5,0.9-2.1c0.6-0.6,1.3-0.9,2.1-0.9h11.6
			c1.1,0,2.1,0.3,2.9,0.8c0.8,0.6,1.4,1.1,1.7,1.7l25.5,38v-37.6c0-0.8,0.3-1.5,0.9-2.1c0.6-0.6,1.3-0.9,2.1-0.9h14.6
			c0.8,0,1.5,0.3,2.1,0.9c0.6,0.6,0.9,1.3,0.9,2.1V304c0,0.8-0.3,1.5-0.9,2.1c-0.6,0.6-1.3,0.9-2.1,0.9h-11.6
			C1055.2,307,1054.3,306.8,1053.5,306.2z"/>
		<path class="st9" d="M1113.3,267.3c0,4.6,0.1,8,0.3,10.1c0.3,3.8,1.6,6.9,3.8,9.3c2.2,2.4,5.6,3.6,10.2,3.6c4.2,0,7.6-1,10.2-3
			c2.6-2,3.8-5.1,3.8-9.3h-9.4c-0.8,0-1.5-0.3-2.1-0.9s-0.9-1.3-0.9-2.1v-11.8c0-0.8,0.3-1.5,0.9-2.1s1.3-0.9,2.1-0.9h26.9
			c0.8,0,1.5,0.3,2.1,0.9s0.9,1.3,0.9,2.1v14.2c0,6.2-1.5,11.6-4.6,16.2c-3,4.6-7.2,8.2-12.4,10.7c-5.2,2.5-11.1,3.7-17.6,3.7
			c-6.9,0-12.9-1.4-18-4.1c-5.1-2.7-9.1-6.3-11.9-10.9c-2.8-4.6-4.4-9.6-4.7-15.2c-0.1-3.6-0.2-6.5-0.2-8.8c0-2.8,0.1-6.4,0.2-11
			c0.2-5.6,1.7-10.6,4.6-15.2c2.8-4.6,6.8-8.2,12-10.9s11.2-4.1,18.1-4.1c6.6,0,12.4,1.2,17.5,3.7c5.1,2.5,9,5.5,11.9,9.2
			c2.8,3.7,4.4,7.3,4.6,10.8c0.1,0.7-0.1,1.2-0.7,1.7c-0.5,0.5-1.1,0.7-1.8,0.7h-14.8c-1,0-1.7-0.2-2.3-0.7
			c-0.6-0.5-1.3-1.2-2.2-2.3c-1.3-1.6-2.9-2.9-4.7-3.9c-1.8-1-4.4-1.4-7.6-1.4c-8.4,0-13,4.3-14,12.9
			C1113.4,260.5,1113.3,263.4,1113.3,267.3z"/>
	</g>
	<g>
		<path class="st10" d="M1206.8,306.9c-0.7,0.7-1.5,1-2.4,1h-16.7c-0.9,0-1.7-0.3-2.4-1c-0.7-0.7-1-1.5-1-2.4v-16.7
			c0-0.9,0.3-1.7,1-2.4c0.7-0.7,1.5-1,2.4-1h16.7c0.9,0,1.7,0.3,2.4,1c0.7,0.7,1,1.5,1,2.4v16.7
			C1207.8,305.4,1207.5,306.2,1206.8,306.9z"/>
		<path class="st10" d="M1275.5,220.7c0-0.9,0.3-1.7,1-2.4c0.7-0.7,1.5-1,2.4-1h16.1c0.9,0,1.7,0.3,2.4,1c0.7,0.7,1,1.5,1,2.4v83.7
			c0,0.9-0.3,1.7-1,2.4c-0.7,0.7-1.5,1-2.4,1h-15.4c-0.9,0-1.7-0.3-2.4-1c-0.7-0.7-1-1.5-1-2.4v-2.9c-1.4,1.6-2.7,2.9-3.9,4
			c-1.2,1-3,1.9-5.2,2.6c-2.2,0.7-5.1,1.1-8.6,1.1c-8.1,0-14.8-2.5-20.1-7.4c-5.3-4.9-8.2-12.2-8.5-21.8l-0.1-5.2l0.1-5.1
			c0.3-9.6,3.1-16.9,8.4-21.9c5.3-5,12-7.5,20.2-7.5c4.4,0,8,0.8,10.7,2.3c2.7,1.5,4.9,3.3,6.4,5.4V220.7z M1255.7,286.3
			c1.8,2,4.6,3.1,8.4,3.1c3.5,0,6.1-1,8-2.9c1.8-2,2.9-4.4,3.4-7.3c0.2-0.8,0.3-2.3,0.3-4.5c0-2.1-0.1-3.6-0.3-4.5
			c-0.3-2.8-1.4-5.2-3.3-7.2c-1.9-2-4.6-3-8-3c-3.7,0-6.5,1-8.4,3.1c-1.8,2-2.9,4.7-3.1,8c-0.1,0.8-0.1,2-0.1,3.6
			c0,1.5,0,2.7,0.1,3.6C1252.9,281.6,1253.9,284.3,1255.7,286.3z"/>
		<path class="st10" d="M1347.2,289.6c2.3,1.5,5,2.3,8,2.3c2.4,0,4.3-0.2,5.9-0.8c1.5-0.5,2.9-1.2,4-2.2c0.9-0.8,1.6-1.3,2-1.5
			c0.4-0.2,1.1-0.3,2.2-0.3h16.6c0.8,0,1.5,0.2,2,0.8s0.8,1.2,0.8,2c0,1.7-1.3,4.1-3.8,7.2c-2.5,3.1-6.3,5.9-11.4,8.3
			c-5,2.4-11.1,3.6-18.3,3.6c-11,0-19.5-3-25.5-9.1c-6-6.1-9-14.5-9-25.3c0-6.7,1.3-12.7,4-17.9c2.7-5.2,6.6-9.3,11.8-12.2
			c5.2-2.9,11.4-4.4,18.6-4.4c7.9,0,14.4,1.7,19.6,5c5.1,3.4,8.9,7.7,11.3,13s3.6,10.9,3.6,16.6v3.6c0,0.9-0.3,1.7-1,2.4
			c-0.7,0.7-1.5,1-2.4,1h-42.5C1343.7,285.5,1344.9,288.1,1347.2,289.6z M1366.7,267.8c-0.3-2.9-1.5-5.3-3.5-7.3c-2-2-4.7-3-8-3
			s-6,1-8,3c-2,2-3.2,4.4-3.5,7.3H1366.7z"/>
	</g>
</g>
</svg>
