<?xml version="1.0" encoding="utf-8"?>
<!-- Generator: Adobe Illustrator 20.1.0, SVG Export Plug-In . SVG Version: 6.00 Build 0)  -->
<svg version="1.1" id="Layer_1" xmlns="http://www.w3.org/2000/svg" xmlns:xlink="http://www.w3.org/1999/xlink" x="0px" y="0px"
	 viewBox="0 0 22 30.1" style="enable-background:new 0 0 22 30.1;" xml:space="preserve">
<style type="text/css">
	.st0{fill:#AAAAAA;}
	.st1{fill:#646464;stroke:#646464;stroke-width:0.5;stroke-miterlimit:10;}
	.st2{fill:#FFFFFF;stroke:#646464;stroke-miterlimit:10;}
	.st3{fill:#A1DDCA;stroke:#646464;stroke-width:1.5;stroke-miterlimit:10;}
	.st4{display:none;}
	.st5{fill:#FFFFFF;stroke:#646464;stroke-width:1.25;stroke-miterlimit:10;}
	.st6{fill:none;stroke:#646464;stroke-linecap:round;stroke-miterlimit:10;}
	.st7{fill:#FFFFFF;stroke:#646464;stroke-width:0.75;stroke-linejoin:round;stroke-miterlimit:10;}
	.st8{fill:none;stroke:#646464;stroke-width:0.6;stroke-linejoin:round;stroke-miterlimit:10;}
</style>
<path class="st0" d="M16.5,26c-0.3-0.8-2.5-1.5-5.3-1.5c-2.9,0-5.3,0.7-5.3,1.7c0,0.2,0.1,0.4,0.4,0.6c0.2,0.1,0.4,0.2,0.6,0.3
	c1,0.4,2.5,0.7,4.3,0.7c0.8,0,1.6-0.1,2.4-0.2C14.7,27.3,15.7,26.8,16.5,26z"/>
<g id="body">
	<path class="st1" d="M8.8,4C8.6,3.4,8.5,3.5,7.3,3.3C5.9,3.1,5.7,1.8,6,1.4c0.7-0.6,1.4-0.1,2.2,0.2C8.9,1.9,9,2.1,9,2.6
		c0,1.3,1.1,2.4,1.8,2.8C11,5.6,10.2,5.7,10,5.6C9.4,5.5,9.4,5,8.8,4z"/>
	<path class="st1" d="M11.6,3.6c0.2-0.6,0.4-1,1.3-1.4c1.3-0.5,1.1-1.6,0.7-1.8c-0.7-0.4-1,0-1.6,0.5S11.3,2,11.3,2.6
		c-0.2,0.9-0.7,2.7-0.8,2.9s0.8,0.2,1,0C11.6,5.3,11.4,4.8,11.6,3.6z"/>
	<path class="st1" d="M12.9,4.8c0.1-0.4,0.4-1,1-1c1-0.1,1.6-0.5,1.3-0.8c-0.5-0.5-1.3-0.5-1.7-0.1c-0.4,0.3-0.5,0.5-0.6,0.7
		c-0.4,0.8-0.6,1.7-0.9,2.1c-0.1,0.1,0.2,0.2,0.4,0.1C12.8,5.7,12.7,5.6,12.9,4.8z"/>
	<path class="st2" d="M6.8,28c0.1,0.3-0.6,0.9-1.3,1C4.8,29,4,28.7,4,28.1c0-0.4,0.4-0.8,0.7-0.9C5,27.1,5,27.3,5.5,27.5
		C6.4,27.9,6.8,27.8,6.8,28z"/>
	<path class="st2" d="M8.8,29c0,0.4-0.2,0.7-1.1,0.5c-0.4-0.1-1-0.4-1-0.8c0-0.3,0.2-0.5,0.5-0.6c0.2,0,0.3-0.1,0.7,0.1
		c0.7,0.2,0.8,0.2,0.9,0.4C8.9,28.7,8.9,28.8,8.8,29z"/>
	<path class="st2" d="M15.4,28c-0.1,0.3,0.6,0.9,1.3,1c0.7,0,1.5-0.3,1.5-0.9c0-0.4-0.4-0.8-0.7-0.9c-0.3-0.1-0.3,0.1-0.8,0.3
		C15.8,27.9,15.6,27.8,15.4,28z"/>
	<path class="st2" d="M13.4,29c0,0.4,0.2,0.7,1.1,0.5c0.4-0.1,1-0.4,1-0.8c0-0.3-0.2-0.5-0.5-0.6c-0.2,0-0.3-0.1-0.7,0.1
		c-0.7,0.2-0.8,0.2-0.9,0.4C13.4,28.7,13.4,28.8,13.4,29z"/>
	<path class="st3" d="M0.8,17.7c0-6.5,3.6-12.3,9.8-12.3s10.7,5.8,10.7,12.3s-4,10.4-10.2,10.4S0.8,24.2,0.8,17.7z"/>
</g>
<g id="Layer_3" class="st4">
</g>
<g id="face">
	<path class="st5" d="M13.4,11.9c1.5-0.8,3.5,0.2,4.5,2.2c0.9,2,0.4,4.2-1.1,5s-3.5-0.2-4.5-2.2C11.4,14.9,11.9,12.6,13.4,11.9z"/>
	<path class="st6" d="M4.9,12.9c-0.1,0-0.3-0.1-0.4-0.3c-0.2-0.3-0.2-0.6-0.2-0.7"/>
	<path class="st6" d="M4.3,13.9c-0.1,0-0.3-0.1-0.5-0.3c-0.3-0.2-0.4-0.5-0.4-0.6"/>
	<path class="st6" d="M4.1,14.9c-0.1,0-0.3,0-0.6-0.1C3.2,14.6,3,14.4,3,14.3"/>
	<path class="st6" d="M17,12.7c0.1,0,0.3-0.1,0.4-0.3c0.2-0.3,0.2-0.6,0.2-0.7"/>
	<path class="st6" d="M17.6,13.6c0.1,0,0.3-0.1,0.5-0.3c0.3-0.2,0.4-0.5,0.4-0.6"/>
	<path class="st6" d="M18,14.5c0.1,0,0.3,0,0.6-0.1c0.3-0.2,0.5-0.4,0.5-0.5"/>
	<path class="st5" d="M4.3,14c0.9-2,2.9-3,4.5-2.2s2,3,1.1,5S7,19.8,5.4,19S3.5,16,4.3,14z"/>
	<ellipse class="st1" cx="7.7" cy="16.3" rx="2.1" ry="2.2"/>
	<ellipse class="st1" cx="14.4" cy="16.3" rx="2.1" ry="2.2"/>
	<polygon class="st7" points="9.4,20.2 11.1,19 12.8,20.2 11.1,22.2 	"/>
	<line class="st8" x1="9.6" y1="20.3" x2="12.4" y2="20.3"/>
</g>
</svg>
